<?xml version="1.0" encoding="utf-8"?>
<!DOCTYPE svg PUBLIC "-//W3C//DTD SVG 1.0//EN" "http://www.w3.org/TR/2001/REC-SVG-20010904/DTD/svg10.dtd">
<svg version="1.0" xmlns="http://www.w3.org/2000/svg" width="1536px" height="528px" viewBox="0 0 1536 528" preserveAspectRatio="xMidYMid meet">
 <g fill="#1b1c1f">
  <path d="M960.50 349.75 c-19.35 -3.05 -36.95 -16.40 -45.25 -34.40 -2.15 -4.65 -4.50 -12.65 -5.30 -17.85 -0.75 -5.20 -0.30 -17.90 0.80 -23 5.50 -25.05 24.35 -43.75 49 -48.55 6.30 -1.25 17.50 -1.35 24 -0.20 12.35 2.15 23.95 8.15 33.30 17.20 l4.10 4 -4.20 3.90 c-2.30 2.15 -5.55 5.15 -7.20 6.65 -1.65 1.50 -3.70 3.35 -4.55 4.15 l-1.55 1.40 -2.70 -2.80 c-5 -5.30 -11.95 -9.45 -18.90 -11.35 -5.05 -1.35 -14.35 -1.50 -19.05 -0.25 -17.50 4.65 -29.20 20.25 -29.10 38.85 0.05 16.65 8.65 30.60 22.90 37.05 4.85 2.20 9.25 3.10 15.20 3.10 11.20 -0.05 20 -3.95 28.15 -12.60 1.80 -1.95 3.45 -3.55 3.60 -3.55 0.10 0 2.75 2.30 5.85 5.05 3.10 2.80 6.95 6.10 8.50 7.40 1.55 1.25 2.85 2.55 2.85 2.90 0.05 0.30 -2.05 2.70 -4.55 5.25 -7.55 7.60 -17.25 13.40 -26.80 15.90 -9.25 2.45 -20.30 3.10 -29.10 1.75z"/>
  <path d="M1056.25 349.75 c-6.90 -1.30 -11.05 -3.50 -15.25 -8.10 -4.65 -5.10 -6.50 -10.15 -6.50 -17.80 0 -8.55 2.05 -14 7.20 -19.10 3.40 -3.35 8.60 -6.25 13.55 -7.50 7.70 -1.95 20.75 -1.85 28.95 0.25 2.20 0.55 4.15 1 4.40 1 0.70 0 0.45 -5.65 -0.40 -8.45 -1 -3.50 -4.05 -6.55 -8 -8.05 -4.20 -1.65 -12 -1.70 -16.95 -0.15 -3.60 1.15 -8.20 3.90 -11.20 6.65 -0.90 0.85 -1.85 1.40 -2.05 1.15 -0.20 -0.20 -2.60 -3 -5.25 -6.15 -2.70 -3.15 -5.25 -6.15 -5.65 -6.65 -0.70 -0.80 -0.65 -1 0.45 -2.15 0.65 -0.75 2.45 -2.25 3.95 -3.45 8.35 -6.45 18.15 -9.45 30.50 -9.35 12.90 0.10 21.70 3.15 28.25 9.80 4.05 4.10 5.85 7.15 7.35 12.65 1.10 3.80 1.10 4.80 1.30 34 l0.15 30.05 -3.40 0.20 c-1.85 0.15 -6.65 0.20 -10.65 0.20 l-7.25 -0.05 -0.25 -4.65 -0.25 -4.65 -1.75 1.80 c-2.35 2.50 -7.15 5.70 -10.20 6.90 -5.85 2.20 -14.30 2.85 -21.05 1.60z m17.85 -17 c1.60 -0.20 4.20 -1 5.85 -1.80 5.65 -2.85 8.70 -7.85 8.75 -14.45 l0.05 -3.20 -2.75 -0.65 c-1.50 -0.30 -5.20 -0.85 -8.25 -1.15 -12.45 -1.20 -19.70 1.75 -21.20 8.65 -0.65 2.75 -0.05 6.25 1.45 8.30 1.85 2.70 9.05 5.40 12.50 4.75 0.40 -0.05 2.05 -0.25 3.60 -0.45z"/>
  <path d="M1257.10 349.70 c-5.15 -0.90 -8.15 -1.95 -13.35 -4.65 -3.55 -1.80 -5.45 -3.25 -9.05 -6.80 -8.95 -8.90 -12.80 -18.65 -12.85 -32.25 0 -11.25 3 -20.25 9.50 -28.40 8.95 -11.25 24.95 -17.45 40.40 -15.65 22.70 2.60 37.90 18.15 39.55 40.40 1.50 20.15 -10.20 38.90 -28.20 45.35 -7.55 2.70 -17.90 3.50 -26 2z m16 -21.20 c16.35 -5.05 21.40 -27.60 8.95 -40.05 -11.40 -11.35 -30.55 -6.90 -36.15 8.40 -1.40 3.90 -1.55 12.50 -0.20 16.90 2.35 7.85 7.45 13.05 14.80 15.05 3.50 0.95 8.95 0.85 12.60 -0.30z"/>
  <path d="M1130.45 347.85 c-0.10 -0.60 -0.20 -19.75 -0.20 -42.60 l0 -41.50 11.15 -0.15 11.10 -0.10 0 4.80 0 4.80 2.95 -2.95 c5.45 -5.45 12.90 -8.30 21.55 -8.35 5.60 0 9.75 1 14.80 3.45 6.35 3.10 10.75 8.70 13.30 16.75 l1.15 3.75 0 31.50 0 31.50 -10.75 -0.15 -10.75 -0.15 -0.30 -27.35 c-0.25 -29.20 -0.25 -29.20 -2.90 -33.10 -5.75 -8.55 -20.85 -7.55 -26.35 1.75 -2.40 4.15 -2.40 4.15 -2.70 32.25 l-0.25 26.70 -10.80 0.15 c-10.80 0.10 -10.85 0.10 -11 -1z"/>
  <path d="M1327.35 348.70 c-0.20 -0.20 -0.35 -19.45 -0.35 -42.80 l0 -42.40 11 0 11 0 0 4.95 0 4.95 3.40 -3.40 c6.90 -6.90 16.60 -9.70 27.10 -7.80 12.10 2.20 20.50 10.55 23.05 23.05 0.90 4.35 0.95 6.80 0.85 34 l-0.15 29.30 -11 0.10 -11 0.10 -0.25 -27.75 c-0.30 -30.30 -0.20 -29.20 -3.35 -33.70 -1 -1.45 -2.55 -2.75 -4.25 -3.65 -2.35 -1.20 -3.20 -1.35 -7.40 -1.40 -4.20 0 -5.05 0.15 -7.60 1.40 -3.40 1.65 -6.75 5.25 -8.15 8.65 -0.95 2.30 -1 3.85 -1.15 29.35 l-0.15 26.85 -3.85 0.05 c-2.10 0 -6.90 0.15 -10.65 0.25 -3.70 0.10 -6.90 0.05 -7.10 -0.10z"/>
  <path d="M265.55 325.30 c-0.40 -0.50 -0.55 -12.40 -0.55 -44.85 0 -40.25 0.10 -44.20 0.85 -45.05 0.70 -0.80 1.65 -0.90 7.45 -0.90 5.35 0 6.80 0.15 7.40 0.80 0.70 0.70 0.80 5.45 0.80 44.90 0 42.15 -0.05 44.20 -0.90 44.95 -1.25 1.15 -14.15 1.25 -15.05 0.15z"/>
  <path d="M307.60 325 c-0.45 -0.75 -0.60 -10.75 -0.60 -44.65 0 -38.70 0.10 -43.75 0.80 -44.75 0.70 -1.05 1.10 -1.10 7.45 -1.10 5.40 0 6.85 0.15 7.45 0.80 0.70 0.70 0.80 5.45 0.80 44.90 0 42.15 -0.05 44.20 -0.90 44.95 -0.75 0.70 -2.10 0.85 -7.65 0.85 -6.15 0 -6.75 -0.10 -7.35 -1z"/>
  <path d="M349.85 325.10 c-0.80 -0.85 -0.85 -4.65 -0.85 -44.65 0 -38.75 0.10 -43.85 0.80 -44.85 0.70 -1.05 1.10 -1.10 7.35 -1.10 5.20 0 6.85 0.15 7.75 0.80 l1.10 0.75 0 44.15 c0 42.15 -0.05 44.20 -0.90 44.95 -0.75 0.70 -2.10 0.85 -7.70 0.85 -5.90 0 -6.85 -0.10 -7.55 -0.90z"/>
  <path d="M110.75 286.20 c-4.15 -2.15 -6.25 -6.50 -5.25 -11 0.80 -3.50 2.20 -5.45 4.90 -6.75 8 -3.90 16.05 2.45 14.40 11.30 -0.40 2 -3.20 5.40 -5.35 6.55 -1.85 0.95 -6.80 0.90 -8.70 -0.10z"/>
  <path d="M148.75 286.35 c-0.80 -0.40 -2.15 -1.35 -2.95 -2.15 -4.20 -4.25 -3.65 -11.85 1.15 -15.05 5 -3.40 10.55 -2.40 14.05 2.40 1.30 1.80 1.50 2.55 1.50 5.30 0 4 -1.15 6.45 -4 8.40 -2.50 1.70 -7.20 2.25 -9.75 1.10z"/>
  <path d="M186.25 286.35 c-2.10 -1 -4.60 -3.70 -5.30 -5.75 -0.90 -2.65 -0.35 -6.70 1.20 -9.05 3.70 -5.60 12.90 -5.40 16.40 0.30 1.60 2.65 1.70 8.40 0.15 10.45 -2.25 3.05 -4.40 4.30 -7.80 4.50 -2.05 0.15 -3.70 0 -4.65 -0.45z"/>
  <path d="M436.05 285.90 c-5.85 -2.90 -7 -11.95 -2 -16.10 2.15 -1.85 3.55 -2.35 6.70 -2.35 5.35 -0.10 9.25 3.60 9.65 9.10 0.55 7.65 -7.35 12.80 -14.35 9.35z"/>
  <path d="M473.75 286.25 c-3.75 -2 -5.25 -4.60 -5.25 -9 0 -3.50 0.85 -5.60 3.15 -7.60 4.20 -3.70 10 -3.20 13.75 1.10 3.85 4.35 2.95 11.10 -1.85 14.50 -2.60 1.80 -7.35 2.30 -9.80 1z"/>
  <path d="M511 286.20 c-3.65 -1.60 -5.50 -4.60 -5.50 -8.95 0 -5.85 3.95 -9.85 9.75 -9.90 6.70 -0.05 11.15 6.15 9.25 12.90 -0.65 2.40 -3.45 5.35 -5.80 6.25 -1.85 0.75 -5.70 0.55 -7.70 -0.30z"/>
 </g>
 <g fill="#04265f">
  <path d="M229.25 372.70 c-2.25 -1.15 -3.30 -2.25 -4.30 -4.45 -0.90 -1.90 -0.95 -5.65 -0.95 -88.20 l0 -86.25 1.05 -2.20 c0.65 -1.30 1.90 -2.70 3.10 -3.50 2 -1.30 2.25 -1.35 11.05 -1.55 4.95 -0.05 11.15 0 13.75 0.20 4.30 0.30 4.85 0.50 6.15 1.75 1.30 1.35 1.40 1.65 1.40 5.75 0 7.40 -0.60 7.75 -12.50 7.75 l-8.50 0 0.10 78.15 0.15 78.10 9.10 0.25 c8.75 0.25 9.10 0.30 10.35 1.45 1.20 1.15 1.30 1.55 1.30 5.85 l0 4.60 -1.75 1.55 -1.80 1.55 -13.10 0 c-10.90 0 -13.35 -0.15 -14.60 -0.80z"/>
  <path d="M372.70 372.55 c-2.15 -1.30 -2.85 -3.35 -2.60 -7.60 0.15 -3.25 0.30 -3.70 1.80 -5 l1.60 -1.45 9 0 9 0 0 -78.25 0 -78.25 -9.05 0 -9.05 0 -1.75 -1.75 c-1.75 -1.75 -1.75 -1.75 -1.60 -5.70 0.25 -4.70 1.20 -6.45 4.25 -7.50 2.95 -1 25.40 -0.50 27.60 0.65 1.55 0.80 3.65 3.25 4.25 4.95 0.20 0.50 0.35 39.95 0.35 87.70 l0 86.75 -1.10 2.10 c-0.80 1.40 -1.85 2.40 -3.40 3.20 -2.10 1.05 -2.75 1.10 -15 1.10 -11.60 0 -12.90 -0.10 -14.30 -0.95z"/>
  <path d="M611.25 349.75 c-12.20 -1.90 -22.20 -6.55 -30.15 -13.95 -2.70 -2.55 -6.55 -7.05 -7.75 -9.10 -0.20 -0.35 0.95 -1.45 2.80 -2.75 1.70 -1.20 5.95 -4.25 9.40 -6.80 6 -4.40 7.45 -5.20 7.45 -4.20 0 0.90 6.80 7.70 9.65 9.65 11.25 7.65 28.70 7.80 36.25 0.35 2.50 -2.45 3.60 -4.95 3.60 -8.25 0 -7.55 -5.45 -11.75 -20.35 -15.70 -18.20 -4.85 -27.20 -8.45 -33.30 -13.25 -3.80 -3.05 -7.50 -8.05 -9.45 -13 -1.35 -3.45 -1.60 -4.75 -1.80 -9.75 -0.25 -7.20 0.55 -11.30 3.45 -17.30 3.55 -7.30 10.65 -13.65 18.95 -17 17.30 -7 39.35 -4.55 54.30 6.05 3.15 2.25 10.85 10.05 10.60 10.80 -0.15 0.35 -11.60 9.75 -16.20 13.25 l-1.55 1.20 -4 -3.95 c-6.70 -6.60 -14.15 -9.40 -23.65 -8.90 -5.65 0.30 -9.05 1.35 -12.25 3.80 -3.90 2.95 -5.60 7.70 -4.25 11.80 0.85 2.65 4.25 5.85 8.05 7.65 1.75 0.85 8.30 3 14.55 4.80 14 4 21 6.60 26 9.65 11.25 6.80 17.15 18.20 16.25 31.30 -1.30 18.55 -14.55 30.80 -36.50 33.80 -5.10 0.70 -15 0.60 -20.10 -0.20z"/>
  <path d="M715.30 346 c-0.15 -1.50 -0.25 -23.55 -0.30 -49 0 -25.45 0 -46.40 0 -46.65 0 -0.20 -8.05 -0.35 -17.85 -0.35 l-17.90 0.05 0 -11.40 0 -11.40 48.50 0 48.50 0 0 11.40 0 11.40 -18 0.10 -18 0.10 -0.15 49.15 -0.10 49.10 -2.15 0.05 c-1.15 0 -6.65 0.05 -12.15 0.10 l-10.10 0.10 -0.30 -2.75z"/>
  <path d="M800.90 348.60 l-6.90 -0.15 0 -60.70 0 -60.75 25.65 0 c34.40 0.05 37 0.30 47.35 5.35 5.15 2.45 6.20 3.25 10.05 7.10 3.55 3.60 4.70 5.20 6.60 9.10 3.15 6.35 4.05 11.10 3.70 19.40 -0.25 6.80 -1.05 10.55 -3.30 15.30 -3.25 6.95 -10 13.55 -17.20 16.75 l-3.65 1.65 3.20 5.30 c1.80 2.90 7.80 12.60 13.35 21.55 5.55 8.95 10.60 17.10 11.20 18.15 l1.15 1.85 -14.20 0 -14.15 0 -5.30 -9.10 c-2.95 -5.05 -8.55 -14.70 -12.50 -21.50 l-7.20 -12.35 -10.10 -0.05 -10.15 0 0 21.20 c0 16 -0.15 21.35 -0.60 21.60 -0.65 0.40 -6.50 0.50 -17 0.30z m47.60 -65.60 c5.80 -1.10 10.60 -4.45 13.10 -9.10 1 -1.85 1.15 -2.90 1.15 -7.15 0 -5.95 -0.85 -8.10 -4.85 -11.85 -4.55 -4.30 -5.75 -4.55 -23.75 -4.80 l-15.65 -0.20 0 16.80 0 16.80 13.70 0 c7.50 0 14.85 -0.25 16.30 -0.50z"/>
 </g>
</svg>